<mxfile host="app.diagrams.net" modified="2023-06-12T05:37:09.575Z" agent="Mozilla/5.0 (Windows NT 10.0; Win64; x64) AppleWebKit/537.36 (KHTML, like Gecko) Chrome/114.0.0.0 Safari/537.36" version="21.3.8" etag="Lonj9s-7QRQmRxyxpZAF" type="github">
  <diagram name="페이지-1" id="q-aLZm_0J2kG1ey9L4aS">
    <mxGraphModel>
      <root>
        <mxCell id="0" />
        <mxCell id="1" parent="0" />
      </root>
    </mxGraphModel>
  </diagram>
</mxfile>
